<svg xmlns="http://www.w3.org/2000/svg" viewBox="0 0 275.37 167.48"><defs><style>.a{fill:#ffdc4a;}.b{fill:#1a7bec;}.c{fill:#00dfb7;}</style></defs><title>symbol</title><path class="a" d="M95.79,83.73a95.44,95.44,0,0,1,31.82-71.27,83.73,83.73,0,1,0,0,142.54A95.44,95.44,0,0,1,95.79,83.73Z" transform="translate(0.08 0.01)"/><path class="b" d="M179.46,83.73A95.44,95.44,0,0,1,147.6,155a83.73,83.73,0,1,0,0-142.54A95.44,95.44,0,0,1,179.46,83.73Z" transform="translate(0.08 0.01)"/><path class="c" d="M167.49,83.73a83.57,83.57,0,0,0-29.87-64,83.59,83.59,0,0,0,0,128.09A83.57,83.57,0,0,0,167.49,83.73Z" transform="translate(0.08 0.01)"/></svg>