<svg width="315" height="303" viewBox="0 0 315 303" fill="none" xmlns="http://www.w3.org/2000/svg">
<path fill-rule="evenodd" clip-rule="evenodd" d="M265.998 34.7562L314.276 116.548L294.182 150.763L315 186.019L266.807 267.602H226.064L205.501 302.4H109.115L88.5525 267.602H48.8741L0.510864 186.144L20.8184 151.804L0 116.548L48.1505 34.7979H88.3822L108.945 0H205.331L225.766 34.7562H265.998ZM198.264 220.608H239.007L259.655 186.144L239.092 151.346H238.538L259.101 116.548L238.538 81.75H198.307L177.744 46.9521H136.618L116.055 81.75H75.8231L55.2602 116.548L75.7805 151.013H76.334L55.7711 185.811L76.334 220.608H116.012L136.575 255.406H177.701L198.264 220.608Z" fill="url(#paint0_linear)"/>
<defs>
<linearGradient id="paint0_linear" x2="1" gradientUnits="userSpaceOnUse" gradientTransform="translate(157.5) scale(315 302.4) rotate(90)">
<stop stop-color="#76F5FE"/>
<stop offset="1" stop-color="#00B9FA"/>
</linearGradient>
</defs>
</svg>
