<svg xmlns="http://www.w3.org/2000/svg" viewBox="0 0 465.6 465.6"><defs><style>.cls-1{isolation:isolate;}.cls-2{fill:#ae6d19;}.cls-2,.cls-3,.cls-4{fill-rule:evenodd;}.cls-3{fill:#c58e46;}.cls-4{fill:#f1d9a0;}.cls-5{fill:#633300;}</style></defs><title>salmon</title><g id="fins" class="cls-1"><g id="fins-2" data-name="fins"><path class="cls-2" d="M329.64,143c-28.77-14-121.83-51.28-128.38-40.16C193,117,188.16,144.78,182.05,153,176.91,160,340.07,148.09,329.64,143ZM107.38,198.88c7.77,4.47,17.53-5.55,24-14s18.78-18.38,7.86-20.52C95.21,155.76,85.28,186.17,107.38,198.88Zm42.36,120.48c-12.22-7-32.72-39.78-39.74-32.3-1.19,1.27-17.51,8.81-12.66,16.15s28,39.36,33.19,37.1S153.89,321.73,149.74,319.36Zm85.58,1.75c-6.06,9.23-9.28,6.42-19.21,19.21-13.86,17.84,2.81,28.39,15.28,20.52,12-7.55,14-12.88,24.45-23.57S241.39,311.87,235.33,321.11Zm141,.87c-9.76,6.55-15.48,10.39-21.4,19.64-13.12,20.5-10.87,24.78,1.75,22.7,16.74-2.76,29-19.84,35.81-42.78C394.08,316.24,386.44,315.22,376.37,322Z"/></g></g><g id="body" class="cls-1"><g id="body-2" data-name="body"><path class="cls-3" d="M419.59,265.23c-7.63-2.54-11.6-9.47-8.3-13.1,3.08-3.39,20.42-5.49,28.38,1.31,4.3,3.68,11.62,11.32,24-.06C469,239.09,460,233,451.47,216.78c-9.39-18-64.29-65.35-104.8-72-39.73-6.55-146.88,3.64-193,14.84C129.4,165.49,107,198.77,92.54,205c-56.59,24.26-56.59,49.95,0,74.21,14.51,6.22,36.86,39.5,61.13,45.4,46.13,11.2,153.27,21.39,193,14.84C382.36,333.56,437,289,455.93,266.16,449.82,261.7,430.46,268.85,419.59,265.23Z"/></g></g><g id="other_color" data-name="other color" class="cls-1"><g id="other_color-2" data-name="other color"><path class="cls-4" d="M340.8,253.2c-.16-3.6-114.6-.92-189.36-1-66.54,0-89.29-2.81-84-18.72,1.88-5.64,6.61-13.92,12.78-22.77C36.3,233.29,40.4,256.85,92.54,279.2c14.51,6.22,36.86,39.5,61.13,45.4,46.13,11.2,153.27,21.39,193,14.84a74.11,74.11,0,0,0,11.64-3C351.69,313.83,341.8,275.19,340.8,253.2Z"/></g></g><g id="Layer_5" data-name="Layer 5"><circle class="cls-5" cx="379.2" cy="224.85" r="13.32"/></g><g id="tail" class="cls-1"><g id="tail-2" data-name="tail"><path class="cls-2" d="M79.66,227.69c8.18-12.8,26.42-27.18,18.56-28.81-19.9-4.12-111.49-85-96.28-56.31C24,184.25,24,299.94,1.93,341.62c-15.21,28.71,76.39-52.19,96.28-56.31,7.86-1.63-10.38-16-18.56-28.81C70.31,241.87,70.31,242.32,79.66,227.69Z"/></g></g></svg>