<svg viewBox="0 0 29 30" version="1.1" xmlns="http://www.w3.org/2000/svg" xmlns:xlink="http://www.w3.org/1999/xlink">
<g class="Canvas" fill="none">
<g class="hexagon logo">
<g class="Shape">
<path d="M 8.07111 0L 2.68444 0L 0 4.64L 2.68444 9.29778L 8.07111 9.29778L 10.7556 4.64L 8.07111 0Z" transform="translate(17.6889 5.24445)" fill="white"/>
</g>
<g class="Shape_2">
<path d="M 8.07111 0L 2.68444 0L 0 4.64L 2.68444 9.29778L 8.07111 9.29778L 10.7556 4.64L 8.07111 0Z" transform="translate(0 5.24445)" fill="white"/>
</g>
<g class="Shape_3">
<path d="M 8.05333 0L 2.68444 0L 0 4.65778L 2.68444 9.31556L 8.05333 9.31556L 10.7378 4.65778L 8.05333 0Z" transform="translate(8.85333 20.48)" fill="white"/>
</g>
<g class="Shape_4">
<path d="M 8.05333 0L 2.68444 0L 0 4.65778L 2.68444 9.31556L 8.05333 9.31556L 10.7378 4.65778L 8.05333 0Z" transform="translate(8.85333 0)" fill="white"/>
</g>
<g class="Shape_5">
<path d="M 8.07111 0L 2.68444 0L 0 4.65778L 2.68444 9.31556L 8.07111 9.31556L 10.7556 4.65778L 8.07111 0Z" transform="translate(17.6889 15.36)" fill="white"/>
</g>
<g class="Shape_6">
<path d="M 8.07111 0L 2.68444 0L 0 4.65778L 2.68444 9.31556L 8.07111 9.31556L 10.7556 4.65778L 8.07111 0Z" transform="translate(0 15.36)" fill="white"/>
</g>
</g>
</g>
</svg>
