<svg id="Layer_1" data-name="Layer 1" xmlns="http://www.w3.org/2000/svg" viewBox="0 0 92.41 94.11"><defs><style>.cls-1{fill:#008075;}.cls-2{fill:#fff;}</style></defs><title>symbol</title><polygon class="cls-1" points="18.16 20.58 0 94.11 73.25 79.93 92.41 0 18.16 20.58"/><path class="cls-2" d="M45.7,59.85l-2.35,9.33,7.83,0a36.46,36.46,0,0,0,8.9-.9,11.89,11.89,0,0,0,5.37-2.75A9.51,9.51,0,0,0,68,60.74a8.48,8.48,0,0,0,0-4.69,6.38,6.38,0,0,0-2.32-3.23,9.87,9.87,0,0,0-5.84-1.48H54.28c-.47-.06-.28-.59.08-1.68s.86-1.32,1.42-1.45,11.78-.33,11.78-.33,2.26-8.62,2.21-8.64-10.67-.41-13-.3a16.08,16.08,0,0,0-8.19,2.38,9.72,9.72,0,0,0-2.78,2.91,10.73,10.73,0,0,0-1.53,3.88A9.82,9.82,0,0,0,44.2,52a5.61,5.61,0,0,0,2,3.2A10.19,10.19,0,0,0,51,56.74c2.53.32,7.72.14,8.16.32s-.4,2.58-1.21,2.72a27.38,27.38,0,0,1-3.54,0"/><path class="cls-2" d="M25.41,43.16c-.35,1.47-.71,3-1.06,4.42a.47.47,0,0,0,0,.36.34.34,0,0,0,.31.14h6.82l-.42,1.64c-.13.56-1.63,6.74-1.78,7.3s-.29,1.11-.42,1.67-.27,1.11-.42,1.65A11.93,11.93,0,0,0,28,64.22,5.37,5.37,0,0,0,29,67a4.68,4.68,0,0,0,2.3,1.65,11.16,11.16,0,0,0,3.72.54h6.84a.64.64,0,0,0,.4-.13.57.57,0,0,0,.22-.36c.39-1.48.76-3,1.11-4.43s.72-2.94,1.11-4.42H38c-.06,0-.11,0-.13,0l-.14-.07a.64.64,0,0,1-.06-.18.35.35,0,0,1,0-.22c.29-1.21,1.95-8,2.25-9.24s.58-2.42.88-3.63.59-2.43.89-3.64.59-2.4.88-3.61a.73.73,0,0,0,0-.27.36.36,0,0,0-.12-.16.43.43,0,0,0-.26-.06H26.47c-.35,1.47-.71,2.95-1.06,4.42"/><path class="cls-2" d="M32.47,37.2a.45.45,0,0,0,.07.4.51.51,0,0,0,.38.14H43.39l2.19-8.6a.35.35,0,0,0,0-.4.46.46,0,0,0-.38-.15H34.7Z"/></svg>