<svg width="30" height="29" viewBox="0 0 30 29" fill="none" xmlns="http://www.w3.org/2000/svg">
<path fill-rule="evenodd" clip-rule="evenodd" d="M25.2071 3.29365L29.7822 11.0446L27.8779 14.2869L29.8507 17.6279L25.2838 25.3591H21.4228L19.4742 28.6567H10.3402L8.39162 25.3591H4.63153L0.0484161 17.6398L1.97284 14.3856L0 11.0446L4.56294 3.29759H8.37547L10.3241 0H19.4581L21.3946 3.29365H25.2071ZM18.7883 20.9058H22.6493L24.606 17.6398L22.6574 14.3422H22.6049L24.5535 11.0446L22.6049 7.74697H18.7924L16.8438 4.44938H12.9465L10.9979 7.74697H7.18532L5.23669 11.0446L7.18129 14.3106H7.23373L5.28511 17.6082L7.23373 20.9058H10.9938L12.9425 24.2034H16.8397L18.7883 20.9058Z" fill="white"/>
</svg>
