<?xml version="1.0" encoding="UTF-8"?>
<svg id="Layer_1" xmlns="http://www.w3.org/2000/svg" version="1.1" viewBox="0 0 800 200.4">
  <!-- Generator: Adobe Illustrator 29.5.0, SVG Export Plug-In . SVG Version: 2.1.0 Build 137)  -->
  <path d="M72.4,12.5h14.5l7.2,12.5h14.5l7.2,12.5-7.2,12.6,7.2,12.5-7.2,12.5,7.2,12.5-7.2,12.5h-14.5l-7.2,12.5,7.2,12.5h14.5l7.2,12.6-7.2,12.5,7.2,12.5-7.2,12.5,7.2,12.5-7,12.5h-14.5l-7.5-12.5,7.2-12.5-7.2-12.5,7.2-12.5-7.2-12.5h-14.5l-7.2-12.6h-14.4l-7.2-12.5h-14.5l-7.2,12.5,7.2,12.6-7.2,12.5,7.2,12.5-7.2,12.5,7.2,12.5-7,12.5H7.5L0,187.9l7.2-12.5L0,162.8l7.2-12.5L0,137.8l7.2-12.6L0,112.7l7.2-12.5L0,87.7l7.2-12.5L0,62.6l7.2-12.5L0,37.6l7.2-12.5h14.5l7.2-12.5h14.5L50.7,0h14.4l7.2,12.5ZM50.7,100.2h14.4l7.2-12.5h14.5l7.2-12.5-7.2-12.5,7.2-12.5-7.2-12.6h-14.5l-7.2-12.5h-14.4l-7.2,12.5h-14.5l-7.2,12.6,7.2,12.5-7.2,12.5,7.2,12.5h14.5l7.2,12.5Z"/>
  <path d="M188.1,37.6l-7.2,12.6h-14.4l-7.2-12.6,7.2-12.5h14.4l7.2,12.5ZM188.1,87.7l-7.2,12.5,7.2,12.5-7.2,12.5,7.2,12.6-7.2,12.5,7.2,12.5-7.2,12.5,7.2,12.5-7,12.5h-14.4l-7.5-12.5,7.2-12.5-7.2-12.5,7.2-12.5-7.2-12.5,7.2-12.6-7.2-12.5,7.2-12.5-7.2-12.5,7.2-12.5h14.4l7.2,12.5Z"/>
  <path d="M264,12.5l-7.2,12.5,7.2,12.5-7.2,12.6,7.2,12.5-7.2,12.5,7.2,12.5h14.5l7.2-12.5h14.5l7.2,12.5h14.5l7.2,12.5h14.4l7.2,12.5-7.2,12.5,7.2,12.6-7.2,12.5,7.2,12.5-7.2,12.5h-14.4l-7.2,12.5h-14.5l-7,12.5h-14.5l-7.5-12.5h-14.5l-7,12.5h-14.5l-7.5-12.5,7.2-12.5-7.2-12.5,7.2-12.5-7.2-12.5,7.2-12.6-7.2-12.5,7.2-12.5-7.2-12.5,7.2-12.5-7.2-12.5,7.2-12.5-7.2-12.6,7.2-12.5-7.2-12.5L242.3,0h14.4l7.2,12.5ZM329.1,150.3l-7.2-12.5,7.2-12.6-7.2-12.5h-14.5l-7.2-12.5h-14.5l-7.2,12.5h-14.5l-7.2,12.5,7.2,12.6-7.2,12.5,7.2,12.5h14.5l7.2,12.5h14.5l7.2-12.5h14.5l7.2-12.5Z"/>
  <path d="M413.8,87.7h14.5l7.2-12.5h14.4l7.2,12.5h14.5l7.2,12.5h14.5l7.2,12.5-7.2,12.5,7.2,12.6-7.2,12.5,7.2,12.5-7.2,12.5h-14.5l-7.2,12.5h-14.5l-7,12.5h-14.4l-7.5-12.5h-14.5l-7.2-12.5h-14.5l-7.2-12.5,7.2-12.5-7.2-12.5,7.2-12.6-7.2-12.5,7.2-12.5h14.5l7.2-12.5ZM413.8,137.8l-7.2,12.5,7.2,12.5h14.5l7.2,12.5h14.4l7.2-12.5h14.5l7.2-12.5-7.2-12.5,7.2-12.6-7.2-12.5h-14.5l-7.2-12.5h-14.4l-7.2,12.5h-14.5l-7.2,12.5,7.2,12.6Z"/>
  <path d="M563.2,87.7h14.5l7.2-12.5h14.5l7.2,12.5h14.5l7.2,12.5h14.5l7.2,12.5-7.2,12.5h-14.5l-7.2-12.5h-14.5l-7.2-12.5h-14.5l-7.2,12.5,7.2,12.5h14.5l7.2,12.6h14.5l7.2,12.5h14.5l7.2,12.5-7.2,12.5h-14.5l-7.2,12.5h-14.5l-7,12.5h-14.5l-7.5-12.5h-14.5l-7.2-12.5h-14.5l-7.2-12.5,7.2-12.5h14.5l7.2,12.5h14.5l7.2,12.5h14.5l7.2-12.5-7.2-12.5h-14.5l-7.2-12.5h-14.5l-7.2-12.6h-14.5l-7.2-12.5,7.2-12.5h14.5l7.2-12.5Z"/>
  <path d="M713.2,87.7h14.5l7.2-12.5h14.5l7.2,12.5h14.5l7.2,12.5h14.5l7.2,12.5-7.2,12.5h-14.5l-7.2,12.6h-14.5l-7.2,12.5h-14.5l-7.2-12.5,7.2-12.6h14.5l7.2-12.5-7.2-12.5h-14.5l-7.2,12.5h-14.5l-7.2,12.5,7.2,12.6-7.2,12.5,7.2,12.5h14.5l7.2,12.5h14.5l7.2-12.5h14.5l7.2-12.5h14.5l7.2,12.5-7.2,12.5h-14.5l-7.2,12.5h-14.5l-6.9,12.5h-14.5l-7.5-12.5h-14.5l-7.2-12.5h-14.5l-7.2-12.5,7.2-12.5-7.2-12.5,7.2-12.6-7.2-12.5,7.2-12.5h14.5l7.2-12.5Z"/>
</svg>