<?xml version="1.0" encoding="utf-8"?>
<svg version="1.1" id="Layer_1" xmlns="http://www.w3.org/2000/svg" xmlns:xlink="http://www.w3.org/1999/xlink" x="0px" y="0px"
	 viewBox="0 0 351.24 351.66" style="enable-background:new 0 0 351.24 351.66;" xml:space="preserve">
<style type="text/css">
	.st0{fill:#1F6CF0;}
</style>
<path class="st0" d="M276.31,242.07c-4.44,2.78-8.88,5.54-13.31,8.32c-24.96,15.62-49.91,31.25-74.9,46.83
	c-1.09,0.68-1.35,1.28-1.16,2.53c2.26,15.33-2.14,28.54-13.12,39.42c-7.38,7.31-16.42,11.41-26.79,12.32
	c-23.06,2.02-43.31-12.81-48.04-35.45c-2.97-14.23,0.47-27.08,9.77-38.3c0.63-0.76,0.68-1.2,0.16-2.03
	c-18.27-29.23-36.52-58.47-54.74-87.73c-0.45-0.72-0.9-0.94-1.73-0.8c-23.2,4.18-46.18-10.87-51.44-34.68
	c-5.32-24.06,10.58-48.68,34.73-53.38c14.55-2.83,27.47,0.68,38.74,10.3c0.09,0.08,0.19,0.14,0.4,0.3c0.32-0.2,0.69-0.41,1.05-0.64
	c29.19-18.27,58.38-36.55,87.58-54.81c0.71-0.45,0.96-0.87,0.81-1.72c-4.21-23.05,10.72-45.91,33.47-51.3
	c25.01-5.92,49.57,9.64,54.55,34.86c2.76,13.98-0.61,26.61-9.66,37.68c-0.33,0.4-0.67,0.79-1.03,1.22
	c3.53,5.65,7.04,11.27,10.54,16.89c14.9,23.89,29.8,47.78,44.69,71.69c0.5,0.8,0.96,1.17,1.98,0.98
	c21.29-3.76,42.25,8.46,49.67,28.91c9.37,25.82-6.6,54.21-33.54,59.31c-14.16,2.68-26.86-0.8-37.92-10.08
	C276.84,242.51,276.6,242.31,276.31,242.07z M277.37,174.64c-18.2-29.09-36.33-58.09-54.44-87.05c-2.32,0.73-2.32,0.73-2.32,3
	c0,35.49,0,70.97,0,106.46c0,0.51,0,1.01,0,1.56c14.14,0,28.12,0,42.16,0c1.12-4.62,2.85-8.98,5.31-13.04
	C270.56,181.47,273.62,177.86,277.37,174.64z M174.33,74.03c-0.44,0.26-0.85,0.5-1.26,0.75c-27.95,17.53-55.91,35.06-83.86,52.59
	c-1.84,1.15-1.84,1.16-1.09,3.23c0.02,0.06,0.11,0.1,0.1,0.09c36.72,0,73.37,0,110.01,0c0.03-0.22,0.05-0.34,0.05-0.45
	c0-13.59,0-27.18,0.03-40.77c0-0.8-0.34-0.99-1.01-1.16c-6.93-1.79-13.11-5.01-18.44-9.79C177.29,77.11,175.86,75.55,174.33,74.03z
	 M153.07,220.99c-0.03,0.41-0.07,0.68-0.07,0.96c0,13.43,0,26.86-0.02,40.29c0,0.82,0.33,1.06,1.06,1.25
	c8.61,2.28,15.91,6.72,21.91,13.31c0.31,0.34,0.64,0.67,0.94,0.99c0.47-0.28,0.81-0.49,1.15-0.7
	c21.76-13.64,43.53-27.29,65.29-40.93c6.53-4.1,13.07-8.19,19.59-12.3c0.33-0.21,0.77-0.58,0.78-0.89c0.07-1.31-0.64-1.97-1.94-1.97
	c-35.76,0-71.51,0-107.27,0C154.07,220.99,153.64,220.99,153.07,220.99z M73.96,177.29c0.19,0.31,0.41,0.69,0.65,1.06
	c17.54,28.09,35.07,56.17,52.61,84.26c1.1,1.77,1.1,1.77,3.04,1.07c0.1-0.04,0.18-0.13,0.21-0.15c0-36.78,0-73.5,0-110.22
	c-0.33-0.02-0.57-0.04-0.81-0.04c-13.4,0-26.8,0.01-40.2-0.03c-1.01,0-1.17,0.5-1.36,1.23c-1.66,6.36-4.57,12.09-8.8,17.11
	C77.63,173.55,75.77,175.36,73.96,177.29z M198.23,153.33c-15.13,0-30.11,0-45.16,0c0,15.11,0,30.15,0,45.26
	c15.07,0,30.08,0,45.16,0C198.23,183.49,198.23,168.45,198.23,153.33z M230.87,44.95c0.01-12.39-9.99-22.44-22.36-22.5
	c-12.31-0.06-22.46,10.04-22.49,22.38c-0.03,12.42,10.05,22.56,22.44,22.57C220.78,67.41,230.86,57.31,230.87,44.95z M22.46,143.15
	c0.03,12.42,10.03,22.41,22.41,22.4c12.41-0.01,22.41-10.11,22.36-22.58c-0.05-12.42-10.05-22.35-22.48-22.31
	C32.35,120.7,22.43,130.71,22.46,143.15z M120.45,306.91c0.01,12.37,10.07,22.45,22.41,22.44c12.33-0.01,22.42-10.11,22.43-22.45
	c0.01-12.38-10.02-22.44-22.38-22.46C130.45,284.42,120.44,294.44,120.45,306.91z M306.43,186.43c-12.39-0.01-22.45,10-22.49,22.36
	c-0.04,12.15,9.96,22.5,21.72,22.51c12.88,0.01,23.1-9.89,23.13-22.4C328.82,196.54,318.78,186.44,306.43,186.43z"/>
</svg>
