<svg xmlns="http://www.w3.org/2000/svg" xmlns:xlink="http://www.w3.org/1999/xlink" viewBox="0 0 1024 559"><defs><style>.cls-1,.cls-4{fill:none;}.cls-2{isolation:isolate;}.cls-3{fill:#488fba;}.cls-4{stroke:#000;stroke-linecap:round;stroke-linejoin:round;stroke-width:12px;stroke-dasharray:12 24;}.cls-5{clip-path:url(#clip-path);}.cls-6{clip-path:url(#clip-path-2);}.cls-7{opacity:0.2;mix-blend-mode:multiply;}.cls-8{fill:#fff;}</style><clipPath id="clip-path"><polygon class="cls-1" points="295.5 405.06 109.49 405.06 109.49 167.25 252.87 167.25 295.5 405.06"/></clipPath><clipPath id="clip-path-2"><polygon class="cls-1" points="451 384 299.54 384 256.88 146 451 146 451 384"/></clipPath></defs><title>Symbol_1</title><g class="cls-2"><g id="Layer_1" data-name="Layer 1"><circle class="cls-3" cx="613" cy="442" r="67"/><circle class="cls-3" cx="732" cy="286" r="199"/><line class="cls-4" x1="452" y1="287" x2="512" y2="287"/><g class="cls-5"><path d="M285.61,393.85s-6.2-18.36-8.71-25.9l-8.54-24.37H192.47L183.93,368c-4,11.31-6.56,17.05-9.31,26.22H128.8c2.75-7.34,6.13-15.41,11.41-29.73l54.78-148c4.52-12.57,6.21-18.37,8.95-25.7l53.11-.44c1.51,6.54,3,11.81,8.54,26.14l55.28,148c4.78,12.81,9.3,23.87,12.32,30.15ZM233.93,237l-3.56-10.65L226.65,237,203,308.15H257.8Z"/></g><g class="cls-6"><path d="M214.75,187c14.88.93,26.61,2.11,46.25,3.5.5,0,.75,0,5.5,0,.25-3.75.25-3.75,1-13a63.09,63.09,0,0,0,.09-9.65l32.82-4.56s.84,9.46-.41,26.21c41.75-2.5,73.25-6.75,94-13,0,0-9.72,27.81-13.36,36-26,3.75-61.39,7-82.89,7.48a77.49,77.49,0,0,1-.5,9.25c-.25,3-.25,5.5-.25,10.25,12-2.5,18.25-3,31.25-3a68.34,68.34,0,0,1,8.75.75c2.5-8,5.35-17.44,5.35-17.44L375,229.25s-.75,1.75-3.25,8c-1.75,5-1.75,5-2.75,7,10.25,3,17.5,6.5,25.75,13.25,15,12.25,22.25,27.5,22.25,47,0,28.75-16,52-45,65.5-12.5,5.75-50.75,12.25-50.75,12.25l-12.64-29.33S338,345,350.75,340c19.25-7.75,30-21.25,30-37.75,0-13.75-6.75-22.75-22-29.75-13.25,28.75-25.5,47-44.75,66.25-23.5,23.75-44.75,35-66,35-25.5,0-42.75-19-42.75-47,0-21,8.75-41,25-57,9.75-10,19.25-16,34.25-22.5q0-10.5.75-26.25h-7c-4.75,0-6.5,0-20-.5-3.25-.25-7.25-.25-12-.5h-4.5a39.81,39.81,0,0,0-6.75.5ZM239.1,324.28c0,10.55,4.53,16.83,12.57,16.83,6,0,11.56-2.26,18.09-7.29-3-18.34-4-33.16-4.27-52C248.65,293.12,239.1,308.2,239.1,324.28Zm60.06-13.07c15.33-18.85,21.36-28.39,28.89-45.48-2.51-.5-2.51-.5-7-.5a67.89,67.89,0,0,0-23.87,4C297.4,288.34,297.9,298.14,299.16,311.21Z"/></g><path class="cls-8" d="M846.47,226.36l-.9.52-27.52,16.44q-37.56,22.44-75.13,44.86a1.05,1.05,0,0,0-.61,1q0,57.92,0,115.83c0,.22,0,.43,0,.74.71-.34,1.34-.62,1.94-.95L804,372c12.16-6.69,24.35-13.33,36.47-20.11a14.31,14.31,0,0,0,7.68-12.58c.17-5,.07-9.92.07-14.88q0-45.69,0-91.38A14,14,0,0,0,846.47,226.36ZM729.87,405.79v-.89q0-57.76,0-115.54a1.2,1.2,0,0,0-.66-1.21q-51.4-30.67-102.78-61.37c-.23-.14-.47-.26-.73-.41a13.3,13.3,0,0,0-1.69,6.45q0,52.71,0,105.41a16.23,16.23,0,0,0,1.49,6.9,15.47,15.47,0,0,0,6.91,7.14l95.42,52.53C728.45,405.14,729.1,405.42,729.87,405.79Zm-94-188,.7.42,50.23,30,48.6,29a1.1,1.1,0,0,0,1.35,0c1.45-.91,2.92-1.76,4.38-2.63l94.57-56.49c.16-.1.32-.22.53-.37l-.59-.35q-45.64-25.11-91.3-50.21a16.22,16.22,0,0,0-16.56,0l-91.24,50.16Z"/><path class="cls-8" d="M846.47,226.36a14,14,0,0,1,1.7,6.68q0,45.69,0,91.38c0,5,.1,9.92-.07,14.88a14.31,14.31,0,0,1-7.68,12.58C828.31,358.66,816.12,365.3,804,372L744.3,404.83c-.6.33-1.23.61-1.94.95,0-.31,0-.52,0-.74q0-57.92,0-115.83a1.05,1.05,0,0,1,.61-1q37.58-22.41,75.13-44.86l27.52-16.44Z"/><path class="cls-8" d="M729.87,405.79c-.77-.37-1.42-.65-2-1l-95.42-52.53a15.47,15.47,0,0,1-6.91-7.14,16.23,16.23,0,0,1-1.49-6.9q0-52.71,0-105.41a13.3,13.3,0,0,1,1.69-6.45c.26.15.5.27.73.41q51.39,30.69,102.78,61.37a1.2,1.2,0,0,1,.66,1.21q0,57.76,0,115.54Z"/><path class="cls-8" d="M635.9,217.76l.67-.41,91.24-50.16a16.22,16.22,0,0,1,16.56,0q45.66,25.1,91.3,50.21l.59.35c-.21.15-.37.27-.53.37l-94.57,56.49c-1.46.87-2.93,1.72-4.38,2.63a1.1,1.1,0,0,1-1.35,0l-48.6-29-50.23-30Z"/></g></g></svg>